<svg width="142" height="88" viewBox="0 0 142 88" fill="none" xmlns="http://www.w3.org/2000/svg">
<path d="M6.96 88C5.12 88 3.52 87.32 2.16 85.96C0.8 84.6 0.120001 83 0.120001 81.16V7.24C0.120001 5.4 0.8 3.79999 2.16 2.43999C3.52 1.08 5.12 0.399998 6.96 0.399998H12.84C17.4 0.399998 20.72 2.4 22.8 6.4L48 54.04C48 54.12 48.04 54.16 48.12 54.16C48.2 54.16 48.24 54.12 48.24 54.04V7.24C48.24 5.4 48.92 3.79999 50.28 2.43999C51.64 1.08 53.24 0.399998 55.08 0.399998H60.96C62.8 0.399998 64.4 1.08 65.76 2.43999C67.12 3.79999 67.8 5.4 67.8 7.24V81.16C67.8 83 67.12 84.6 65.76 85.96C64.4 87.32 62.8 88 60.96 88H55.08C50.52 88 47.2 86 45.12 82L19.92 34.36C19.92 34.28 19.88 34.24 19.8 34.24C19.72 34.24 19.68 34.28 19.68 34.36V81.16C19.68 83 19 84.6 17.64 85.96C16.28 87.32 14.68 88 12.84 88H6.96ZM92.7384 88C90.8984 88 89.2984 87.32 87.9384 85.96C86.6584 84.6 86.0184 83 86.0184 81.16V7.24C86.0184 5.4 86.6584 3.79999 87.9384 2.43999C89.2984 1.08 90.8984 0.399998 92.7384 0.399998H135.218C137.058 0.399998 138.618 1.08 139.898 2.43999C141.258 3.79999 141.938 5.4 141.938 7.24V10C141.938 11.84 141.258 13.44 139.898 14.8C138.618 16.16 137.058 16.84 135.218 16.84H107.378C106.738 16.84 106.418 17.16 106.418 17.8V33.64C106.418 34.36 106.738 34.72 107.378 34.72H132.818C134.658 34.72 136.218 35.4 137.498 36.76C138.858 38.12 139.538 39.72 139.538 41.56V43.36C139.538 45.2 138.858 46.8 137.498 48.16C136.218 49.52 134.658 50.2 132.818 50.2H107.378C106.738 50.2 106.418 50.52 106.418 51.16V70.6C106.418 71.24 106.738 71.56 107.378 71.56H135.218C137.058 71.56 138.618 72.24 139.898 73.6C141.258 74.96 141.938 76.56 141.938 78.4V81.16C141.938 83 141.258 84.6 139.898 85.96C138.618 87.32 137.058 88 135.218 88H92.7384Z" fill="black"/>
</svg>
