<svg width="386" height="46" viewBox="0 0 386 46" fill="none" xmlns="http://www.w3.org/2000/svg">
<path d="M3.98 45C3.06 45 2.26 44.66 1.58 43.98C0.9 43.3 0.56 42.5 0.56 41.58V4.62C0.56 3.7 0.9 2.9 1.58 2.22C2.26 1.54 3.06 1.2 3.98 1.2H6.92C9.2 1.2 10.86 2.2 11.9 4.2L24.5 28.02C24.5 28.06 24.52 28.08 24.56 28.08C24.6 28.08 24.62 28.06 24.62 28.02V4.62C24.62 3.7 24.96 2.9 25.64 2.22C26.32 1.54 27.12 1.2 28.04 1.2H30.98C31.9 1.2 32.7 1.54 33.38 2.22C34.06 2.9 34.4 3.7 34.4 4.62V41.58C34.4 42.5 34.06 43.3 33.38 43.98C32.7 44.66 31.9 45 30.98 45H28.04C25.76 45 24.1 44 23.06 42L10.46 18.18C10.46 18.14 10.44 18.12 10.4 18.12C10.36 18.12 10.34 18.14 10.34 18.18V41.58C10.34 42.5 10 43.3 9.32 43.98C8.64 44.66 7.84 45 6.92 45H3.98ZM47.7692 45C46.8492 45 46.0492 44.66 45.3692 43.98C44.7292 43.3 44.4092 42.5 44.4092 41.58V4.62C44.4092 3.7 44.7292 2.9 45.3692 2.22C46.0492 1.54 46.8492 1.2 47.7692 1.2H52.2092C53.1292 1.2 53.9092 1.54 54.5492 2.22C55.2292 2.9 55.5692 3.7 55.5692 4.62V41.58C55.5692 42.5 55.2292 43.3 54.5492 43.98C53.9092 44.66 53.1292 45 52.2092 45H47.7692ZM67.5191 9.66C66.5991 9.66 65.7991 9.32 65.1191 8.64C64.4391 7.96 64.0991 7.16 64.0991 6.24V4.62C64.0991 3.7 64.4391 2.9 65.1191 2.22C65.7991 1.54 66.5991 1.2 67.5191 1.2H94.2791C95.1991 1.2 95.9991 1.54 96.6791 2.22C97.3591 2.9 97.6991 3.7 97.6991 4.62V6.24C97.6991 7.16 97.3591 7.96 96.6791 8.64C95.9991 9.32 95.1991 9.66 94.2791 9.66H86.5991C86.2791 9.66 86.1191 9.82 86.1191 10.14V41.58C86.1191 42.5 85.7791 43.3 85.0991 43.98C84.4191 44.66 83.6191 45 82.6991 45H79.0991C78.1791 45 77.3791 44.66 76.6991 43.98C76.0191 43.3 75.6791 42.5 75.6791 41.58V10.14C75.6791 9.82 75.5191 9.66 75.1991 9.66H67.5191ZM109.586 45C108.666 45 107.866 44.66 107.186 43.98C106.546 43.3 106.226 42.5 106.226 41.58V4.62C106.226 3.7 106.546 2.9 107.186 2.22C107.866 1.54 108.666 1.2 109.586 1.2H114.026C114.946 1.2 115.726 1.54 116.366 2.22C117.046 2.9 117.386 3.7 117.386 4.62V41.58C117.386 42.5 117.046 43.3 116.366 43.98C115.726 44.66 114.946 45 114.026 45H109.586ZM137.435 9.24V22.32C137.435 22.6 137.615 22.78 137.975 22.86C139.335 23.02 140.415 23.1 141.215 23.1C144.095 23.1 146.315 22.44 147.875 21.12C149.475 19.76 150.275 17.88 150.275 15.48C150.275 10.72 147.255 8.34 141.215 8.34C140.215 8.34 139.115 8.44 137.915 8.64C137.595 8.72 137.435 8.92 137.435 9.24ZM130.835 45C129.915 45 129.115 44.66 128.435 43.98C127.755 43.3 127.415 42.5 127.415 41.58V4.92C127.415 3.96 127.735 3.1 128.375 2.34C129.015 1.58 129.815 1.16 130.775 1.08C134.175 0.759999 137.455 0.599999 140.615 0.599999C153.415 0.599999 159.815 5.36 159.815 14.88C159.815 20.04 158.315 23.96 155.315 26.64C152.355 29.28 147.995 30.6 142.235 30.6C140.715 30.6 139.295 30.54 137.975 30.42C137.615 30.42 137.435 30.58 137.435 30.9V41.58C137.435 42.5 137.095 43.3 136.415 43.98C135.735 44.66 134.935 45 134.015 45H130.835ZM193.812 23.1C193.812 13.7 190.452 9 183.732 9C177.012 9 173.652 13.7 173.652 23.1C173.652 32.5 177.012 37.2 183.732 37.2C190.452 37.2 193.812 32.5 193.812 23.1ZM198.732 39.66C195.052 43.62 190.052 45.6 183.732 45.6C177.412 45.6 172.412 43.62 168.732 39.66C165.052 35.66 163.212 30.14 163.212 23.1C163.212 16.06 165.052 10.56 168.732 6.6C172.412 2.6 177.412 0.599999 183.732 0.599999C190.052 0.599999 195.052 2.6 198.732 6.6C202.412 10.56 204.252 16.06 204.252 23.1C204.252 30.14 202.412 35.66 198.732 39.66ZM214.097 45C213.177 45 212.377 44.66 211.697 43.98C211.017 43.3 210.677 42.5 210.677 41.58V4.62C210.677 3.7 211.017 2.9 211.697 2.22C212.377 1.54 213.177 1.2 214.097 1.2H217.037C219.317 1.2 220.977 2.2 222.017 4.2L234.617 28.02C234.617 28.06 234.637 28.08 234.677 28.08C234.717 28.08 234.737 28.06 234.737 28.02V4.62C234.737 3.7 235.077 2.9 235.757 2.22C236.437 1.54 237.237 1.2 238.157 1.2H241.097C242.017 1.2 242.817 1.54 243.497 2.22C244.177 2.9 244.517 3.7 244.517 4.62V41.58C244.517 42.5 244.177 43.3 243.497 43.98C242.817 44.66 242.017 45 241.097 45H238.157C235.877 45 234.217 44 233.177 42L220.577 18.18C220.577 18.14 220.557 18.12 220.517 18.12C220.477 18.12 220.457 18.14 220.457 18.18V41.58C220.457 42.5 220.117 43.3 219.437 43.98C218.757 44.66 217.957 45 217.037 45H214.097ZM257.646 45C256.726 45 255.926 44.66 255.246 43.98C254.566 43.3 254.226 42.5 254.226 41.58V37.02C254.226 36.1 254.566 35.3 255.246 34.62C255.926 33.94 256.726 33.6 257.646 33.6H262.206C263.126 33.6 263.926 33.94 264.606 34.62C265.286 35.3 265.626 36.1 265.626 37.02V41.58C265.626 42.5 265.286 43.3 264.606 43.98C263.926 44.66 263.126 45 262.206 45H257.646ZM278.725 45C277.805 45 277.005 44.66 276.325 43.98C275.685 43.3 275.365 42.5 275.365 41.58V4.62C275.365 3.7 275.685 2.9 276.325 2.22C277.005 1.54 277.805 1.2 278.725 1.2H299.965C300.885 1.2 301.665 1.54 302.305 2.22C302.985 2.9 303.325 3.7 303.325 4.62V6C303.325 6.92 302.985 7.72 302.305 8.4C301.665 9.08 300.885 9.42 299.965 9.42H286.045C285.725 9.42 285.565 9.58 285.565 9.9V17.82C285.565 18.18 285.725 18.36 286.045 18.36H298.765C299.685 18.36 300.465 18.7 301.105 19.38C301.785 20.06 302.125 20.86 302.125 21.78V22.68C302.125 23.6 301.785 24.4 301.105 25.08C300.465 25.76 299.685 26.1 298.765 26.1H286.045C285.725 26.1 285.565 26.26 285.565 26.58V36.3C285.565 36.62 285.725 36.78 286.045 36.78H299.965C300.885 36.78 301.665 37.12 302.305 37.8C302.985 38.48 303.325 39.28 303.325 40.2V41.58C303.325 42.5 302.985 43.3 302.305 43.98C301.665 44.66 300.885 45 299.965 45H278.725ZM313.789 9.66C312.869 9.66 312.069 9.32 311.389 8.64C310.709 7.96 310.369 7.16 310.369 6.24V4.62C310.369 3.7 310.709 2.9 311.389 2.22C312.069 1.54 312.869 1.2 313.789 1.2H340.549C341.469 1.2 342.269 1.54 342.949 2.22C343.629 2.9 343.969 3.7 343.969 4.62V6.24C343.969 7.16 343.629 7.96 342.949 8.64C342.269 9.32 341.469 9.66 340.549 9.66H332.869C332.549 9.66 332.389 9.82 332.389 10.14V41.58C332.389 42.5 332.049 43.3 331.369 43.98C330.689 44.66 329.889 45 328.969 45H325.369C324.449 45 323.649 44.66 322.969 43.98C322.289 43.3 321.949 42.5 321.949 41.58V10.14C321.949 9.82 321.789 9.66 321.469 9.66H313.789ZM355.015 45C354.095 45 353.295 44.66 352.615 43.98C351.935 43.3 351.595 42.5 351.595 41.58V4.62C351.595 3.7 351.935 2.9 352.615 2.22C353.295 1.54 354.095 1.2 355.015 1.2H358.435C359.355 1.2 360.135 1.54 360.775 2.22C361.455 2.9 361.795 3.7 361.795 4.62V17.82C361.795 18.18 361.975 18.36 362.335 18.36H374.695C375.055 18.36 375.235 18.18 375.235 17.82V4.62C375.235 3.7 375.555 2.9 376.195 2.22C376.875 1.54 377.675 1.2 378.595 1.2H382.015C382.935 1.2 383.735 1.54 384.415 2.22C385.095 2.9 385.435 3.7 385.435 4.62V41.58C385.435 42.5 385.095 43.3 384.415 43.98C383.735 44.66 382.935 45 382.015 45H378.595C377.675 45 376.875 44.66 376.195 43.98C375.555 43.3 375.235 42.5 375.235 41.58V26.58C375.235 26.26 375.055 26.1 374.695 26.1H362.335C361.975 26.1 361.795 26.26 361.795 26.58V41.58C361.795 42.5 361.455 43.3 360.775 43.98C360.135 44.66 359.355 45 358.435 45H355.015Z" fill="black"/>
</svg>
