<svg width="245" height="46" viewBox="0 0 245 46" fill="none" xmlns="http://www.w3.org/2000/svg">
    <path
        d="M3.98 45C3.06 45 2.26 44.66 1.58 43.98C0.9 43.3 0.56 42.5 0.56 41.58V4.62C0.56 3.7 0.9 2.9 1.58 2.22C2.26 1.54 3.06 1.2 3.98 1.2H6.92C9.2 1.2 10.86 2.2 11.9 4.2L24.5 28.02C24.5 28.06 24.52 28.08 24.56 28.08C24.6 28.08 24.62 28.06 24.62 28.02V4.62C24.62 3.7 24.96 2.9 25.64 2.22C26.32 1.54 27.12 1.2 28.04 1.2H30.98C31.9 1.2 32.7 1.54 33.38 2.22C34.06 2.9 34.4 3.7 34.4 4.62V41.58C34.4 42.5 34.06 43.3 33.38 43.98C32.7 44.66 31.9 45 30.98 45H28.04C25.76 45 24.1 44 23.06 42L10.46 18.18C10.46 18.14 10.44 18.12 10.4 18.12C10.36 18.12 10.34 18.14 10.34 18.18V41.58C10.34 42.5 10 43.3 9.32 43.98C8.64 44.66 7.84 45 6.92 45H3.98ZM47.7692 45C46.8492 45 46.0492 44.66 45.3692 43.98C44.7292 43.3 44.4092 42.5 44.4092 41.58V4.62C44.4092 3.7 44.7292 2.9 45.3692 2.22C46.0492 1.54 46.8492 1.2 47.7692 1.2H52.2092C53.1292 1.2 53.9092 1.54 54.5492 2.22C55.2292 2.9 55.5692 3.7 55.5692 4.62V41.58C55.5692 42.5 55.2292 43.3 54.5492 43.98C53.9092 44.66 53.1292 45 52.2092 45H47.7692ZM67.5191 9.66C66.5991 9.66 65.7991 9.32 65.1191 8.64C64.4391 7.96 64.0991 7.16 64.0991 6.24V4.62C64.0991 3.7 64.4391 2.9 65.1191 2.22C65.7991 1.54 66.5991 1.2 67.5191 1.2H94.2791C95.1991 1.2 95.9991 1.54 96.6791 2.22C97.3591 2.9 97.6991 3.7 97.6991 4.62V6.24C97.6991 7.16 97.3591 7.96 96.6791 8.64C95.9991 9.32 95.1991 9.66 94.2791 9.66H86.5991C86.2791 9.66 86.1191 9.82 86.1191 10.14V41.58C86.1191 42.5 85.7791 43.3 85.0991 43.98C84.4191 44.66 83.6191 45 82.6991 45H79.0991C78.1791 45 77.3791 44.66 76.6991 43.98C76.0191 43.3 75.6791 42.5 75.6791 41.58V10.14C75.6791 9.82 75.5191 9.66 75.1991 9.66H67.5191ZM109.586 45C108.666 45 107.866 44.66 107.186 43.98C106.546 43.3 106.226 42.5 106.226 41.58V4.62C106.226 3.7 106.546 2.9 107.186 2.22C107.866 1.54 108.666 1.2 109.586 1.2H114.026C114.946 1.2 115.726 1.54 116.366 2.22C117.046 2.9 117.386 3.7 117.386 4.62V41.58C117.386 42.5 117.046 43.3 116.366 43.98C115.726 44.66 114.946 45 114.026 45H109.586ZM137.435 9.24V22.32C137.435 22.6 137.615 22.78 137.975 22.86C139.335 23.02 140.415 23.1 141.215 23.1C144.095 23.1 146.315 22.44 147.875 21.12C149.475 19.76 150.275 17.88 150.275 15.48C150.275 10.72 147.255 8.34 141.215 8.34C140.215 8.34 139.115 8.44 137.915 8.64C137.595 8.72 137.435 8.92 137.435 9.24ZM130.835 45C129.915 45 129.115 44.66 128.435 43.98C127.755 43.3 127.415 42.5 127.415 41.58V4.92C127.415 3.96 127.735 3.1 128.375 2.34C129.015 1.58 129.815 1.16 130.775 1.08C134.175 0.759999 137.455 0.599999 140.615 0.599999C153.415 0.599999 159.815 5.36 159.815 14.88C159.815 20.04 158.315 23.96 155.315 26.64C152.355 29.28 147.995 30.6 142.235 30.6C140.715 30.6 139.295 30.54 137.975 30.42C137.615 30.42 137.435 30.58 137.435 30.9V41.58C137.435 42.5 137.095 43.3 136.415 43.98C135.735 44.66 134.935 45 134.015 45H130.835ZM193.812 23.1C193.812 13.7 190.452 9 183.732 9C177.012 9 173.652 13.7 173.652 23.1C173.652 32.5 177.012 37.2 183.732 37.2C190.452 37.2 193.812 32.5 193.812 23.1ZM198.732 39.66C195.052 43.62 190.052 45.6 183.732 45.6C177.412 45.6 172.412 43.62 168.732 39.66C165.052 35.66 163.212 30.14 163.212 23.1C163.212 16.06 165.052 10.56 168.732 6.6C172.412 2.6 177.412 0.599999 183.732 0.599999C190.052 0.599999 195.052 2.6 198.732 6.6C202.412 10.56 204.252 16.06 204.252 23.1C204.252 30.14 202.412 35.66 198.732 39.66ZM214.097 45C213.177 45 212.377 44.66 211.697 43.98C211.017 43.3 210.677 42.5 210.677 41.58V4.62C210.677 3.7 211.017 2.9 211.697 2.22C212.377 1.54 213.177 1.2 214.097 1.2H217.037C219.317 1.2 220.977 2.2 222.017 4.2L234.617 28.02C234.617 28.06 234.637 28.08 234.677 28.08C234.717 28.08 234.737 28.06 234.737 28.02V4.62C234.737 3.7 235.077 2.9 235.757 2.22C236.437 1.54 237.237 1.2 238.157 1.2H241.097C242.017 1.2 242.817 1.54 243.497 2.22C244.177 2.9 244.517 3.7 244.517 4.62V41.58C244.517 42.5 244.177 43.3 243.497 43.98C242.817 44.66 242.017 45 241.097 45H238.157C235.877 45 234.217 44 233.177 42L220.577 18.18C220.577 18.14 220.557 18.12 220.517 18.12C220.477 18.12 220.457 18.14 220.457 18.18V41.58C220.457 42.5 220.117 43.3 219.437 43.98C218.757 44.66 217.957 45 217.037 45H214.097Z"
        fill="black" />
</svg>